<?xml version="1.0" encoding="utf-8"?>
<!-- Generator: Adobe Illustrator 27.2.0, SVG Export Plug-In . SVG Version: 6.00 Build 0)  -->
<svg version="1.1" id="Capa_1" xmlns="http://www.w3.org/2000/svg" xmlns:xlink="http://www.w3.org/1999/xlink" x="0px" y="0px"
	 viewBox="0 0 1022.4 554.4" style="enable-background:new 0 0 1022.4 554.4;" xml:space="preserve">
<style type="text/css">
	.st0{fill:#E5EDF5;}
	.st1{fill:#D9E5F0;}
	.st2{fill:#EDF3F8;}
	.st3{fill:#F2F6FA;}
	.st4{fill:#F2F2F2;}
	.st5{fill:#CCDCEC;}
	.st6{fill:#A6C2DD;}
	.st7{fill:#FFFFFF;}
	.st8{fill:#00509E;}
	.st9{fill:#FBFBFB;}
	.st10{fill:#4C84BB;}
	.st11{fill:#80A7CE;}
</style>
<g>
	<path class="st0" d="M890.5,436.8c-3.6,0.7-7.3,1.1-11,1c-31,0-31-19.7-61.9-19.7c-30.9,0-31,19.7-61.9,19.7s-31-19.7-61.9-19.7
		c-30.9,0-31,19.7-61.9,19.7c-4.2,0-8.3-0.4-12.4-1.3c4.4-28.4,20.5-53.7,44.4-69.8c7.9-5.1,16.2-9.5,24.9-13
		c42.9-16.6,90.5-16.6,133.5,0c8.7,3.5,17.1,7.8,24.9,13C868.9,380.8,885.4,411.4,890.5,436.8L890.5,436.8z"/>
	<path class="st0" d="M664.1,366.8c-23.9,16.1-40,41.4-44.4,69.8c-19.4-4.4-23.4-18.4-49.6-18.4c-25.4,0-59.6,9-61.8,14.9
		c1.5-33.1,39.6-60.5,90.4-68c9.3-1.4,18.7-2.1,28.2-2C639.4,363,651.8,364.2,664.1,366.8L664.1,366.8z"/>
	<path class="st0" d="M1003.1,433.6c-2.1-0.9-36.3-15.4-61.8-15.4c-26.7,0-30.3,14.8-50.8,18.7c-5.1-25.4-21.7-56-43.2-70.1
		c12.2-2.5,24.7-3.8,37.2-3.8C949.3,363,1001.7,394.4,1003.1,433.6L1003.1,433.6z"/>
	<path class="st1" d="M976,424c9.2,2.7,18.2,5.9,27.1,9.5c-1.4-39.2-53.8-70.6-118.5-70.6c-3.9,0-7.6,0.3-11.4,0.6
		C926,367.4,967.9,392.3,976,424z"/>
	<path class="st2" d="M518,478c49.7,0,49.7,22.3,99.3,22.3c1,0,2.1,0,3.1,0c46.6-0.9,47.7-22.3,96.3-22.3
		c49.7,0,49.7,22.3,99.4,22.3c48.6,0,49.7-21.4,96.3-22.3c1,0,2,0,3,0c45.5,0,49.3,18.7,87.8,21.8v-64.6h0c0-0.5,0-1.1-0.1-1.6
		c-2.1-0.9-36.3-15.4-61.8-15.4c-26.7,0-30.3,14.8-50.8,18.7c-3.6,0.7-7.3,1.1-11,1c-31,0-30.9-19.7-61.9-19.7s-30.9,19.7-61.9,19.7
		s-30.9-19.7-61.9-19.7s-31,19.7-61.9,19.7c-4.2,0-8.3-0.4-12.4-1.3c-19.4-4.4-23.4-18.4-49.6-18.4c-25.4,0-59.6,9-61.8,14.9
		c-0.1,0.2-0.1,0.4-0.1,0.6v69.8h9.7L518,478z"/>
	<path class="st1" d="M1003.1,433.6c-2.1-0.9-36.3-15.4-61.8-15.4c-4,0-7.9,0.4-11.8,1.2c16.5,3,32.5,7.8,48,14.3
		c0.1,0.5,0.1,1.1,0.1,1.6v68.3h25.6v-68.3C1003.2,434.7,1003.2,434.1,1003.1,433.6z"/>
	<path class="st3" d="M822.5,353.8c-42.9-16.6-90.5-16.6-133.5,0l15.5-217.3h102.4L822.5,353.8z"/>
	<path class="st1" d="M822.5,353.8l-15.5-217.3h-25.6l15,209.4C805.2,347.8,814,350.4,822.5,353.8z"/>
	<path class="st4" d="M841.1,102.4V128c0,4.7-3.8,8.5-8.5,8.5H678.9c-4.1,0-7.6-2.9-8.4-6.8c-0.1-0.6-0.2-1.1-0.2-1.7v-25.6
		c0-4.7,3.8-8.5,8.5-8.5h153.6C837.2,93.9,841.1,97.7,841.1,102.4z"/>
	<path class="st1" d="M832.5,93.9h-25.6c4.7,0,8.5,3.8,8.5,8.5V128c0,4.7-3.8,8.5-8.5,8.5h25.6c4.7,0,8.5-3.8,8.5-8.5v-25.6
		C841.1,97.7,837.2,93.9,832.5,93.9z"/>
	<path class="st5" d="M789.9,42.7v51.2h-68.3V42.7c0-18.9,15.3-34.1,34.1-34.1S789.9,23.8,789.9,42.7z"/>
	<path class="st6" d="M755.7,8.5c-4.4,0-8.7,0.9-12.8,2.6c12.9,5.2,21.3,17.7,21.3,31.6v51.2h25.6V42.7
		C789.9,23.8,774.6,8.5,755.7,8.5z"/>
	<path class="st3" d="M721.6,52.8v73l-295.2,45.4c-14.1,2.1-27.8-4.9-30.6-15.8c-0.3-1.3-0.5-2.6-0.5-3.9V20
		C395.4,8.9,407.1,0,421.5,0c1.9,0,3.9,0.2,5.8,0.5L721.6,52.8z"/>
	<path class="st7" d="M678.9,136.5h25.6c-4.1,0-7.6-2.9-8.4-6.8l-22.9,4.6C674.8,135.7,676.8,136.5,678.9,136.5L678.9,136.5z"/>
	<path class="st7" d="M730.1,136.5l-14.9,209.2c-9,1.9-17.7,4.6-26.2,8l15.5-217.3H730.1z"/>
	<path class="st7" d="M533.9,433.1c1.5-33.1,39.6-60.5,90.4-68c4.4-0.7,8.9-1.2,13.5-1.5c-3.6-0.2-7.2-0.5-11-0.5
		c-9.4,0-18.8,0.7-28.2,2c-50.8,7.5-88.8,34.9-90.4,68c-0.1,0.2-0.1,0.4-0.1,0.6v69.8h25.6v-69.8
		C533.8,433.5,533.9,433.3,533.9,433.1L533.9,433.1z"/>
	<circle class="st8" cx="755.7" cy="51.2" r="8.5"/>
	<g>
		<path class="st8" d="M780.6,494.9c8.9,3.1,19.7,5.3,35.5,5.3c15.8,0,26.6-2.3,35.5-5.3H780.6z"/>
		<path class="st8" d="M518,494.9h-1.2v-58c17-6.7,35.1-10.1,53.3-10.2c9.5-0.2,18.8,2.8,26.4,8.5c10.3,7.5,22.8,11.4,35.5,11.2
			c12.7,0.2,25.2-3.7,35.5-11.2c7.6-5.8,16.9-8.8,26.4-8.5c9.5-0.2,18.8,2.8,26.3,8.5c21.3,14.9,49.7,14.9,71,0
			c15.7-11.3,37-11.3,52.7,0c21.3,14.9,49.7,14.9,71,0c7.5-5.8,16.8-8.8,26.3-8.5c18.3,1.3,36.4,5.6,53.3,12.7v55.5h-15.4
			c8.3,2.9,18.3,5,32.4,5.3c0-72.8,0.1-66.5-0.2-68.3c-2.6-43.7-57.3-77.5-126.9-77.5c-11.9,0-23.8,1.2-35.5,3.4
			c-5.9-3.7-12.1-7-18.5-9.9l-14.5-203h16.4c9.4,0,17.1-7.6,17.1-17.1v-25.6c0-9.4-7.6-17.1-17.1-17.1h-34.1V42.7
			c0-23.6-19.1-42.7-42.7-42.7s-42.7,19.1-42.7,42.7V47l-182-42c-4-0.9-8.8,2-9.6,5.8c-0.9,4.9,2,9.9,5.7,10.8l185.8,42.9v20.8
			h-34.1c-9.4,0-17.1,7.6-17.1,17.1v21.5l-134.9,25.9c-3.7,0.8-6.9,4.3-5.7,10c1.1,5.4,5.8,7.4,8.9,6.8c8.4-1.6,36.1-6.9,137.1-26.3
			c3.2,3,7.4,4.8,11.7,4.8h16.4L680.9,348c-6.4,2.9-12.6,6.1-18.5,9.9c-21.4-4-43.3-4.4-64.9-1.2c-56.4,8.3-96,39.5-97.6,76.3
			c-0.2,2.2-0.2-11-0.2,70.6c0,4.7,3.8,8.5,8.5,8.5h9.7L518,494.9z M884.6,371.5c50.6,0,94.4,21,106.6,48.4
			c-65.2-22.7-77.5-2-93.6,5.7c-3.2-20.7-13.7-39.5-29.4-53.2C873.5,371.9,879,371.5,884.6,371.5z M815.5,102.4h17.1V128h-17.1
			V102.4z M798.4,102.4V128h-17.1v-25.6H798.4z M730.1,42.7c0-14.1,11.5-25.6,25.6-25.6c14.1,0,25.6,11.5,25.6,25.6v42.7h-51.2V42.7
			z M764.3,102.4V128h-17.1v-25.6H764.3z M713.1,102.4h17.1V128h-17.1V102.4z M700.3,315.7h64c4.7,0,8.5-3.8,8.5-8.5
			s-3.8-8.5-8.5-8.5h-62.8l3.7-51.2h42c4.7,0,8.5-3.8,8.5-8.5s-3.8-8.5-8.5-8.5h-40.8l3.7-51.2h28.6c4.7,0,8.5-3.8,8.5-8.5
			s-3.8-8.5-8.5-8.5h-27.4l1.2-17.1H799l3.7,51.2h-46.9c-4.7,0-8.5,3.8-8.5,8.5s3.8,8.5,8.5,8.5h48.1l3.7,51.3
			c-2.6-0.2,7.9-0.1-43.3-0.1c-4.7,0-8.5,3.8-8.5,8.5s3.8,8.5,8.5,8.5c48.8,0,42.1,0.2,44.5-0.4l4.3,60.3
			c-37.3-11.6-77.3-11.6-114.6,0L700.3,315.7z M678.9,128v-25.6H696V128H678.9z M668.8,373.9c48.3-31.8,124.8-32.3,173.9,0
			c22.7,14.9,36,34.3,38.1,55.3c-9.9,0.6-19.8-2.4-27.7-8.5c-21.3-14.9-49.7-14.9-71,0c-15.7,11.3-37,11.3-52.7,0
			c-10.3-7.5-22.7-11.4-35.5-11.2c-12.8-0.2-25.2,3.7-35.6,11.2c-7.9,6.1-17.8,9.1-27.7,8.4C632.8,408.2,646,388.8,668.8,373.9z
			 M600,373.5c14.3-2.1,28.8-2.4,43.2-1.1c-15.7,13.7-26.1,32.5-29.4,53.1c-11.2-5.4-19.8-15.9-43.7-15.9
			c-16.4,0.6-32.6,3.1-48.5,7.4C532.8,396.1,562.3,379.1,600,373.5z"/>
		<path class="st8" d="M581.9,494.9c8.9,3.1,19.7,5.3,35.5,5.3c1,0,2.1,0,3.1,0c14.1-0.3,24.1-2.4,32.4-5.3H581.9z"/>
	</g>
	<path class="st8" d="M1014.8,492.7c-23.2,0-34.6-5.1-46.6-10.5c-12.9-5.8-26.3-11.8-52.8-11.8c-1.1,0-2.2,0-3.2,0
		c-24.4,0.5-37.2,6.2-49.6,11.8c-12,5.4-23.4,10.5-46.6,10.5c-23.2,0-34.6-5.1-46.6-10.5c-12.9-5.8-26.3-11.8-52.8-11.8
		c-26.5,0-39.9,6-52.8,11.8c-11.5,5.2-22.4,10-43.7,10.5c-0.9,0-1.9,0-2.9,0c-23.2,0-34.5-5.1-46.6-10.5
		c-12.9-5.8-26.3-11.8-52.8-11.8c-4.2,0-7.6,3.4-7.6,7.6s3.4,7.6,7.6,7.6c23.2,0,34.6,5.1,46.6,10.5c12.9,5.8,26.3,11.8,52.8,11.8
		c1.1,0,2.2,0,3.2,0c24.4-0.5,37.2-6.2,49.6-11.8c12-5.4,23.4-10.5,46.6-10.5c23.2,0,34.6,5.1,46.6,10.5
		c12.9,5.8,26.3,11.8,52.8,11.8c26.5,0,39.9-6,52.8-11.8c11.5-5.2,22.4-10,43.7-10.5c0.9,0,1.9,0,2.9,0c23.2,0,34.6,5.1,46.6,10.5
		c12.9,5.8,26.3,11.8,52.8,11.8c4.2,0,7.6-3.4,7.6-7.6C1022.4,496.1,1019,492.7,1014.8,492.7z"/>
	<path class="st8" d="M504.4,469.5c-23.2,0-34.6-5.1-46.6-10.5c-12.9-5.8-26.3-11.8-52.8-11.8c-1.1,0-2.2,0-3.2,0
		c-24.4,0.5-37.2,6.2-49.6,11.8c-12,5.4-23.4,10.5-46.6,10.5c-23.2,0-34.6-5.1-46.6-10.5c-12.9-5.8-26.3-11.8-52.8-11.8
		c-26.5,0-39.9,6-52.8,11.8c-11.5,5.2-22.4,10-43.7,10.5c-0.9,0-1.9,0-2.9,0c-23.2,0-34.5-5.1-46.6-10.5
		c-12.9-5.8-26.3-11.8-52.8-11.8c-4.2,0-7.6,3.4-7.6,7.6s3.4,7.6,7.6,7.6c23.2,0,34.6,5.1,46.6,10.5c12.9,5.8,26.3,11.8,52.8,11.8
		c1.1,0,2.2,0,3.2,0c24.4-0.5,37.2-6.2,49.6-11.8c12-5.4,23.4-10.5,46.6-10.5c23.2,0,34.6,5.1,46.6,10.5
		c12.9,5.8,26.3,11.8,52.8,11.8c26.5,0,39.9-6,52.8-11.8c11.5-5.2,22.4-10,43.7-10.5c0.9,0,1.9,0,2.9,0c23.2,0,34.6,5.1,46.6,10.5
		c12.9,5.8,26.3,11.8,52.8,11.8c4.2,0,7.6-3.4,7.6-7.6C512,472.9,508.6,469.5,504.4,469.5z"/>
	<polyline class="st3" points="312.8,129.6 458.8,322.7 312.8,322.7 	"/>
	<polyline class="st9" points="312.8,90.5 140.9,351.6 312.8,351.6 	"/>
	<polyline class="st10" points="461.1,446.1 416.2,386.6 189.6,386.6 174.4,434.8 	"/>
	<path class="st6" d="M177.4,546.8c1,0,2.1,0,3.1,0c46.6-0.9,47.7-22.3,96.3-22.3c49.7,0,49.7,22.3,99.4,22.3
		c48.6,0,49.7-21.4,96.3-22.3c1,0,2,0,3,0c25.9,0,38.3,6.1,51.3,11.9l10.4-26.6l37.6-95.8l-400.4,20.8l-96.4,5l26.8,87.5
		C130.2,533.2,138.7,546.8,177.4,546.8z"/>
	<path class="st11" d="M177.4,546.8c1,0,2.1,0,3.1,0c46.6-0.9,47.7-22.3,96.3-22.3c49.7,0,49.7,22.3,99.4,22.3
		c48.6,0,49.7-21.4,96.3-22.3c1,0,2,0,3,0c25.9,0,38.3,6.1,51.3,11.9l10.4-26.6c-240.8,25.3-362.8-39.8-362.8-75l-96.4,5l26.8,87.5
		C130.2,533.2,138.7,546.8,177.4,546.8z"/>
	<circle class="st10" cx="489.2" cy="464.1" r="15.2"/>
	<path class="st8" d="M574.8,539.2c-23.2,0-34.6-5.1-46.6-10.5c-12.9-5.8-26.3-11.8-52.8-11.8c-1.1,0-2.2,0-3.2,0
		c-24.4,0.5-37.2,6.2-49.6,11.8c-12,5.4-23.4,10.5-46.6,10.5c-23.2,0-34.6-5.1-46.6-10.5c-12.9-5.8-26.3-11.8-52.8-11.8
		c-26.5,0-39.9,6-52.8,11.8c-11.5,5.2-22.4,10-43.7,10.5c-0.9,0-1.9,0-2.9,0c-23.2,0-34.5-5.1-46.6-10.5
		c-12.9-5.8-26.3-11.8-52.8-11.8c-4.2,0-7.6,3.4-7.6,7.6c0,4.2,3.4,7.6,7.6,7.6c23.2,0,34.6,5.1,46.6,10.5
		c12.9,5.8,26.3,11.8,52.8,11.8c1.1,0,2.2,0,3.2,0c24.4-0.5,37.2-6.2,49.6-11.8c12-5.4,23.4-10.5,46.6-10.5
		c23.2,0,34.6,5.1,46.6,10.5c12.9,5.8,26.3,11.8,52.8,11.8c26.5,0,39.9-6,52.8-11.8c11.5-5.2,22.4-10,43.7-10.5c0.9,0,1.9,0,2.9,0
		c23.2,0,34.6,5.1,46.6,10.5c12.9,5.8,26.3,11.8,52.8,11.8c4.2,0,7.6-3.4,7.6-7.6C582.4,542.6,579,539.2,574.8,539.2z"/>
	<path class="st8" d="M89.2,502.1c1,3.3,4,5.4,7.3,5.4c0.7,0,1.5-0.1,2.2-0.3c4-1.2,6.3-5.5,5-9.5l-15.5-50.8l29.9-1.6
		c4.2-0.2,7.4-3.8,7.2-8c-0.2-4.2-3.8-7.4-8-7.2l-39.7,2.1c-2.3,0.1-4.5,1.3-5.8,3.2c-1.3,1.9-1.7,4.3-1,6.6L89.2,502.1z"/>
	<path class="st8" d="M138.5,436.7c0.2,4.2,3.8,7.4,8,7.2l416.9-21.7l-35,89.3c-1.5,3.9,0.4,8.3,4.3,9.9c0.9,0.4,1.9,0.5,2.8,0.5
		c3,0,5.9-1.8,7.1-4.8l39.3-100.3c0.9-2.4,0.6-5.1-0.9-7.2c-1.5-2.1-4-3.3-6.6-3.1l-428.7,22.3C141.5,428.9,138.3,432.5,138.5,436.7
		z"/>
	<path class="st8" d="M118.6,359.2h186.6V379H189.6c-3.3,0-6.3,2.2-7.3,5.3l-6.5,20.7c-1.3,4,1,8.3,5,9.5c0.8,0.2,1.5,0.4,2.3,0.4
		c3.2,0,6.2-2.1,7.2-5.3l4.8-15.4h217.2l9.4,12.5c2.5,3.4,7.3,4,10.6,1.5c3.4-2.5,4-7.3,1.5-10.6L422.3,382c-1.4-1.9-3.7-3-6.1-3
		h-95.8v-48.7h158.2c4.2,0,7.6-3.4,7.6-7.6s-3.4-7.6-7.6-7.6h-16l-85.8-113.5c-2.5-3.4-7.3-4-10.7-1.5c-3.4,2.5-4,7.3-1.5,10.7
		l78.9,104.3H320.4V152.2l26.9,35.6c1.5,2,3.8,3,6.1,3c1.6,0,3.2-0.5,4.6-1.5c3.4-2.5,4-7.3,1.5-10.7l-39-51.6V69.3
		c0-4.2-3.4-7.6-7.6-7.6c-4.2,0-7.6,3.4-7.6,7.6v19L136.8,344h-18.3c-4.2,0-7.6,3.4-7.6,7.6S114.4,359.2,118.6,359.2z M305.2,115.9
		V344H155.1L305.2,115.9z"/>
	<path class="st8" d="M466.4,464.1c0,12.6,10.2,22.8,22.8,22.8s22.8-10.2,22.8-22.8c0-12.6-10.2-22.8-22.8-22.8
		C476.6,441.3,466.4,451.6,466.4,464.1z M496.8,464.1c0,4.2-3.4,7.6-7.6,7.6s-7.6-3.4-7.6-7.6c0-4.2,3.4-7.6,7.6-7.6
		S496.8,459.9,496.8,464.1z"/>
</g>
</svg>
